<svg id="435d0623-bc25-4981-8ea3-94bf2274b9d2" data-name="Layer 1" xmlns="http://www.w3.org/2000/svg" viewBox="0 0 32 32"><title>gift</title><path d="M22.42,10.42a7.67,7.67,0,0,0,3.77-2.5,4.45,4.45,0,0,0,.17-4.37c-.82-1.94-2-2.35-2.8-2.35-1.59,0-3.37,1.49-5.45,4.55A40.34,40.34,0,0,0,16,9.26a40.66,40.66,0,0,0-2.1-3.51C11.82,2.69,10,1.2,8.45,1.2c-.82,0-2,.41-2.8,2.35a4.4,4.4,0,0,0,.17,4.34,7.71,7.71,0,0,0,3.75,2.53M7.22,6.94a2.77,2.77,0,0,1,0-2.74c.37-.87.79-1.32,1.25-1.32,1.53,0,4.08,3.53,5.77,6.61C11.9,9.31,8.36,8.67,7.22,6.94ZM23.55,2.88c.46,0,.88.44,1.25,1.32a2.77,2.77,0,0,1,0,2.74c-1.14,1.72-4.69,2.37-7,2.55C19.48,6.42,22,2.88,23.55,2.88Z"/><path d="M17.7,18.8h8.6V12.2a2,2,0,0,0-2-2H17.7Z"/><path d="M14.3,18.8V10.2H7.7a2,2,0,0,0-2,2v6.6Z"/><path d="M17.7,22.2v8.6h6.6a2,2,0,0,0,2-2V22.2Z"/><path d="M14.3,22.2H5.7v6.6a2,2,0,0,0,2,2h6.6Z"/></svg>